<?xml version="1.0" standalone="no"?>
<!DOCTYPE svg PUBLIC "-//W3C//DTD SVG 20010904//EN"
 "http://www.w3.org/TR/2001/REC-SVG-20010904/DTD/svg10.dtd">
<svg version="1.0" xmlns="http://www.w3.org/2000/svg"
 width="800.000000pt" height="800.000000pt" viewBox="0 0 800.000000 800.000000"
 preserveAspectRatio="xMidYMid meet">
<metadata>
Created by potrace 1.11, written by Peter Selinger 2001-2013
</metadata>
<g transform="translate(0.000000,800.000000) scale(0.100000,-0.100000)"
fill="#000000" stroke="none">
<path d="M810 5509 c-226 -38 -367 -246 -410 -604 -26 -216 -8 -609 44 -959
45 -294 143 -751 178 -824 12 -24 1331 -1075 1386 -1104 32 -16 89 11 98 48 4
16 -6 93 -25 188 -85 440 -63 775 68 1041 94 190 210 298 463 431 175 92 234
135 265 189 32 57 31 135 -3 202 -30 61 -136 164 -220 216 -194 117 -438 157
-597 97 -80 -30 -173 -119 -220 -208 -89 -168 -122 -378 -114 -722 7 -315 43
-600 123 -994 19 -93 33 -171 30 -173 -2 -2 -252 190 -555 428 l-550 432 -11
51 c-38 175 -52 294 -57 466 -8 285 20 446 112 635 97 200 214 308 484 449 82
43 168 94 192 114 99 85 104 208 11 324 -145 182 -474 314 -692 277z"/>
<path d="M5660 4960 c-109 -23 -202 -96 -251 -198 -34 -70 -38 -198 -9 -274
28 -76 95 -149 162 -178 59 -26 172 -37 261 -26 l54 7 7 56 c4 31 4 58 2 60
-2 3 -36 0 -75 -6 -89 -14 -154 -1 -205 40 -123 102 -110 318 24 387 44 23 92
25 195 10 16 -3 20 5 27 51 5 30 5 58 1 62 -13 13 -145 18 -193 9z"/>
<path d="M7344 4949 c-74 -28 -137 -88 -175 -165 -42 -85 -51 -201 -23 -290
25 -79 85 -151 159 -189 51 -26 69 -30 139 -30 102 0 173 32 240 106 65 72 90
142 90 255 0 83 -3 97 -32 157 -39 78 -93 128 -169 157 -69 26 -161 26 -229
-1z m198 -124 c101 -68 120 -272 36 -376 -7 -9 -29 -26 -48 -38 -78 -47 -174
-12 -225 81 -26 47 -30 63 -29 133 1 93 21 143 79 193 31 28 43 32 93 32 44 0
66 -6 94 -25z"/>
<path d="M3189 4959 c0 -2 -1 -154 -2 -337 l-2 -332 73 0 72 0 0 124 0 123 66
7 c185 19 285 114 272 257 -6 60 -36 101 -95 130 -43 21 -65 24 -215 27 -93 2
-168 2 -169 1z m286 -113 c40 -17 55 -42 55 -93 0 -72 -54 -113 -148 -113 -47
0 -50 1 -56 31 -8 42 -8 174 1 182 12 12 113 7 148 -7z"/>
<path d="M3764 4620 l0 -330 71 0 71 0 -1 330 0 330 -70 0 -70 0 -1 -330z"/>
<path d="M4030 4933 c0 -10 -3 -35 -7 -56 l-6 -39 142 8 c118 6 141 5 141 -7
0 -20 -71 -139 -184 -308 -88 -133 -96 -148 -96 -192 l0 -49 225 0 225 0 0 38
c0 20 3 47 6 60 l7 23 -147 -7 c-90 -4 -146 -3 -146 2 0 16 96 179 185 315 72
110 83 134 86 178 l4 51 -217 0 c-201 0 -218 -1 -218 -17z"/>
<path d="M4560 4894 l0 -55 140 7 c86 4 140 3 140 -3 0 -15 -100 -179 -192
-315 -74 -109 -87 -135 -93 -183 l-6 -55 230 0 231 0 0 60 0 60 -140 -6 c-120
-6 -140 -5 -140 8 0 18 112 208 200 338 53 80 64 103 68 148 l4 52 -221 0
-221 0 0 -56z"/>
<path d="M5125 4620 l0 -330 70 0 71 0 0 330 -1 330 -70 0 -70 0 0 -330z"/>
<path d="M6150 4934 c0 -8 -49 -145 -109 -303 -60 -158 -113 -299 -116 -314
l-7 -27 76 0 c74 0 76 0 82 28 3 15 14 57 25 95 l20 67 115 0 c131 0 118 10
149 -117 l18 -73 83 0 82 0 -22 73 c-13 39 -57 169 -98 287 -42 118 -81 234
-87 258 l-12 42 -99 0 c-84 0 -100 -2 -100 -16z m130 -211 c22 -72 40 -133 40
-137 0 -3 -39 -6 -86 -6 -68 0 -85 3 -82 14 7 29 83 264 85 262 2 -1 21 -61
43 -133z"/>
<path d="M6550 4895 l0 -55 100 0 101 0 -3 -275 -3 -275 73 0 72 0 0 275 0
275 95 0 95 0 0 55 0 55 -265 0 -265 0 0 -55z"/>
<path d="M7440 3709 c-46 -14 -96 -53 -115 -89 -19 -36 -19 -110 -1 -154 18
-43 57 -72 182 -134 56 -28 111 -63 123 -78 41 -53 15 -121 -55 -144 -36 -12
-158 -9 -231 6 -30 6 -32 4 -39 -30 -3 -21 -4 -39 -2 -42 3 -2 43 -9 90 -15
84 -10 172 -3 229 19 133 52 147 237 23 323 -24 16 -81 47 -127 68 -46 21 -94
49 -106 62 -30 32 -28 83 5 116 25 24 28 25 127 21 56 -3 109 -8 118 -12 13
-6 18 1 23 30 4 20 3 41 -2 46 -14 14 -201 19 -242 7z"/>
<path d="M3210 3706 c0 -3 -1 -153 -1 -333 l0 -328 47 0 47 0 -2 133 -2 132
53 0 c177 0 298 91 298 225 0 67 -26 114 -81 145 -41 23 -55 25 -201 28 -87 2
-158 1 -158 -2z m290 -88 c36 -18 48 -31 58 -62 34 -106 -45 -176 -199 -176
l-57 0 -4 123 c-2 67 -3 125 -1 130 2 4 39 7 81 7 61 0 88 -5 122 -22z"/>
<path d="M4260 3375 l0 -335 205 0 205 0 0 40 0 40 -160 0 -160 0 0 115 0 115
120 0 120 0 0 41 0 42 -120 -8 -120 -7 0 106 0 106 144 0 144 0 4 35 c2 20 2
38 -1 40 -2 3 -89 5 -193 5 l-188 0 0 -335z"/>
<path d="M5280 3708 c0 -2 -2 -153 -3 -336 l-2 -332 208 0 207 0 0 40 0 40
-160 0 -160 0 0 115 0 115 121 0 120 0 -3 38 -3 37 -117 -3 -118 -3 0 83 c0
46 -3 93 -6 106 l-6 22 151 0 151 0 0 40 0 40 -190 0 c-104 0 -190 -1 -190 -2z"/>
<path d="M6295 3375 l0 -335 49 0 49 0 -5 134 -4 133 83 6 c169 10 273 96 273
224 0 74 -53 142 -128 163 -20 5 -100 10 -177 10 l-140 0 0 -335z m279 251
c46 -19 76 -61 76 -107 0 -90 -54 -130 -187 -137 l-83 -5 0 125 c0 69 3 128 7
131 12 13 153 7 187 -7z"/>
</g>
</svg>
