<?xml version="1.0" standalone="no"?>
<!DOCTYPE svg PUBLIC "-//W3C//DTD SVG 20010904//EN"
 "http://www.w3.org/TR/2001/REC-SVG-20010904/DTD/svg10.dtd">
<svg version="1.0" xmlns="http://www.w3.org/2000/svg"
 width="400.000000pt" height="400.000000pt" viewBox="0 0 400.000000 400.000000"
 preserveAspectRatio="xMidYMid meet">
<metadata>
Created by potrace 1.11, written by Peter Selinger 2001-2013
</metadata>
<g transform="translate(0.000000,400.000000) scale(0.100000,-0.100000)"
fill="#000000" stroke="none">
<path d="M1290 3749 c-226 -38 -367 -246 -410 -604 -26 -216 -8 -609 44 -959
45 -294 143 -751 178 -824 12 -24 1331 -1075 1386 -1104 32 -16 89 11 98 48 4
16 -6 93 -25 188 -85 440 -63 775 68 1041 94 190 210 298 463 431 175 92 234
135 265 189 32 57 31 135 -3 202 -30 61 -136 164 -220 216 -194 117 -438 157
-597 97 -80 -30 -173 -119 -220 -208 -89 -168 -122 -378 -114 -722 7 -315 43
-600 123 -994 19 -93 33 -171 30 -173 -2 -2 -252 190 -555 428 l-550 432 -11
51 c-38 175 -52 294 -57 466 -8 285 20 446 112 635 97 200 214 308 484 449 82
43 168 94 192 114 99 85 104 208 11 324 -145 182 -474 314 -692 277z"/>
</g>
</svg>
